<svg id="Layer_1" data-name="Layer 1" xmlns="http://www.w3.org/2000/svg" viewBox="0 0 400 300" width="406" height="306" class="illustration styles_illustrationTablet__1DWOa"><title>#92_startup_twocolour</title><path d="M122.81,101.87c-21.4,13-34.07,36.93-32.06,61.9,1,12.76,5.77,25.08,18.32,31.8,33.44,17.94,179.44,18.24,201.05-13.45s13.57-76.72-33.42-95.48C236,70.38,178.05,68.23,122.81,101.87Z" fill="#e6e6e6" opacity="0.3"></path><path d="M80.91,260.81S79,245.25,90,243s10.41,15.56,20.58,8.91,3.67-14.16,16.17-20.41,14.4,6.89,23,9.5,10-25.3,45.5-14.52,37,17.12,48.49,6.44,32.59-8.92,39.93,10.83,22.6-18.51,38.59-9,9.24,24,9.24,24l-39.5,9-83.75-5.5s-98.75-1.13-100.5-1.44S80.91,260.81,80.91,260.81Z" fill="#e6e6e6" opacity="0.51"></path><path d="M292.19,123.55s-22,4.45-20.19,25-18.19,31.78-5.93,43.64,28.6,5.19,28.6,5.19Z" fill="#71c55f"></path><path d="M292.19,123.55s-22,4.45-20.19,25-18.19,31.78-5.93,43.64,28.6,5.19,28.6,5.19Z" fill="#fff" opacity="0.39"></path><path d="M310.4,103.21a28.81,28.81,0,0,0-1.82,7.46,2.32,2.32,0,0,0,2.25,2.4,5.1,5.1,0,0,0,4.93-2.56l2.47-3.47a4.15,4.15,0,0,0-.5-4.77C315.77,99.74,311.3,100.54,310.4,103.21Z" fill="#f4a28c"></path><polygon points="317.11 107.91 316.92 123.04 308.59 122.34 312.08 111.61 317.11 107.91" fill="#f4a28c"></polygon><path d="M317.78,110.64h0a.42.42,0,0,1-.43.31,3.08,3.08,0,0,1-2.93-2.28,3.84,3.84,0,0,1,1.2-4,18.42,18.42,0,0,1-4.18-.9,4.42,4.42,0,0,1-1.27-.67L310,99.39s-.84-3.86,1.33-4,2.44,2.36,4.49,1.2,2.6-1.65,4-.29-.85,2.11,1.84,2.88,2.44,1.89,2.11,3.12a2.2,2.2,0,0,1-.84,1A14.18,14.18,0,0,0,317.78,110.64Z" fill="#24285b"></path><path d="M314,108.4s.54-1.7,1.78-1.19.48,3-1.33,2.68Z" fill="#f4a28c"></path><path d="M309.47,106l-1.73,1.34a.74.74,0,0,0,.11,1.24l1.6.82Z" fill="#f4a28c"></path><path d="M311.64,113.05A7.1,7.1,0,0,0,315,112s-.52,3-4.41,4.23Z" fill="#ce8172" opacity="0.31"></path><path d="M301.19,121.58a106.54,106.54,0,0,1,39.94,8.54,15.39,15.39,0,0,1,7.77,21.06l-21.73,43.35-40.28-2.39s-7.34-24.36-5.87-51.91A19.8,19.8,0,0,1,301.19,121.58Z" fill="#71c55f"></path><path d="M327.17,194.53l12,66.28h-6l-15.09-36a62.42,62.42,0,0,0-26.79-30.17l-4.42-2.51Z" fill="#24285b"></path><path d="M330.5,135.88a21.4,21.4,0,0,0-7.67,19.57c1.84,12.55,3.73,22.3-7.83,19.38S297.17,145,297.17,145l-13.5.33,2.33,30,7.83.54a8.46,8.46,0,0,1,7.72,6.78l2.11,10.47,23.51,1.39,3.33-4.95,14.67-15.91L347,148.33Z" opacity="0.08"></path><rect x="287.2" y="136.25" width="26.16" height="35.83" transform="translate(-9.77 20.72) rotate(-3.89)" fill="#ffd200"></rect><path d="M286.89,192.14l6.21,68.67h8s-1.87-51.67,12.57-62.67Z" fill="#24285b"></path><path d="M329.6,139.76A9.81,9.81,0,0,1,347.16,134c4.62,5.9,8.88,15.74,8.53,31.9-.75,34.5-21,43.75-52.25,6l6.15-4.75s12.31,10.44,23.58,10.59C341.56,177.88,329,156.22,329.6,139.76Z" fill="#71c55f"></path><path d="M329.6,139.76A9.81,9.81,0,0,1,347.16,134c4.62,5.9,8.88,15.74,8.53,31.9-.75,34.5-21,43.75-52.25,6l6.15-4.75s12.31,10.44,23.58,10.59C341.56,177.88,329,156.22,329.6,139.76Z" fill="#fff" opacity="0.39"></path><path d="M287.12,153.51s9,16.53,27,11.86l.39,5.79-26.1,1.77Z" opacity="0.08"></path><path d="M308.46,168s-3.68-6.5-8.18-4.78,3.16,8.66,3.16,8.66Z" fill="#f4a28c"></path><path d="M189.8,203.37l5.69,38.49s-21.28-19.19-35-.86c-4.83,6.47-9.5,9.87-26.5,3.44S101.5,241,98.5,255.76s-14.5-11-27,2.12S72.5,276.5,110,272s59.5,13.5,90.25,3.5,46.25.5,70.25-.5,32,1.5,65-8,13.5-24.06,2-26-12.22,16.53-25.36,12S298,232.56,281.5,235.53,272,257,260,250c-9.21-5.36-5.51-13.9-17.8-17.58a27.12,27.12,0,0,0-24.84,5.18l-5.11,4.17L214,201Z" fill="#e6e6e6"></path><polygon points="175 113 134 158.75 178.66 158.75 175 113" fill="#ffd200"></polygon><polygon points="225.07 113 266.07 158.75 221.41 158.75 225.07 113" fill="#ffd200"></polygon><path d="M88.35,184.65s-8.32,2.23-13.79-3.54c0,0,9.81-8.74,16.83,2.55Z" fill="#71c55f" opacity="0.58"></path><path d="M88.81,183.42s-9.64-5-9.56-15c0,0,11.6.43,13.67,12.62Z" fill="#71c55f" opacity="0.73"></path><path d="M90.11,182.67s-2.24-9.92,4.84-16.18c0,0,4.68,4.56.65,13Z" fill="#71c55f"></path><polygon points="84.79 185.52 92.06 194.63 101.25 189.31 96.79 178.58 84.79 185.52" fill="#24285b"></polygon><path d="M199.15,39.79v-.27l-.14.13-.14-.13v.28c-3.56,3.58-39.3,42.79-18.71,154.07h39.58C240.32,82.47,202.8,43.29,199.15,39.79Z" fill="#71c55f"></path><path d="M223.1,96.29l1.14,7.88a73.88,73.88,0,0,1-33.83,5.43,18.36,18.36,0,0,0-16.2,7.09h0s1.16-16.21,1.94-19.94Z" fill="#3b1e59" opacity="0.11"></path><path d="M199.15,39.79v-.27l-.14.13-.14-.13v.28c-3.56,3.58-39.3,42.79-18.71,154.07h39.58C240.32,82.47,202.8,43.29,199.15,39.79Z" fill="#fff8dc"></path><path d="M185.25,132.8l-11,12.39a215.07,215.07,0,0,0,3.33,32.91l27.85-20.68Z" opacity="0.08"></path><polygon points="178.66 185.3 180.16 193.87 220.09 193.87 221.67 185.3 178.66 185.3" fill="#ffd200"></polygon><path d="M178.1,86.57l-.08.23A26.75,26.75,0,0,0,176.26,96l-.11.73s22.21,12.61,46.95-.46h0a4.69,4.69,0,0,0,.17-1.34,23.05,23.05,0,0,0-1.86-8.38H178.1Z" fill="#ffd200"></path><polygon points="178.66 185.3 180.16 193.87 220.09 193.87 221.67 185.3 178.66 185.3" opacity="0.13"></polygon><path d="M178.1,86.57l-.08.23A26.75,26.75,0,0,0,176.26,96l-.11.73s22.21,12.61,46.95-.46h0a4.69,4.69,0,0,0,.17-1.34,23.05,23.05,0,0,0-1.86-8.38H178.1Z" opacity="0.13"></path><path d="M178.1,86.57s21,9.76,43.31,0c0,0-3.63-35.48-21.66-52C199.75,34.55,184.63,46.48,178.1,86.57Z" fill="#ffd200"></path><circle cx="200.25" cy="141.5" r="17.25" fill="#24285b"></circle><path d="M200.88,132.2c.51,0,.67.18.67.69V134a5,5,0,0,1,4.08,3.08c.27.53.16.82-.44,1.09l-1.09.49c-.51.24-.75.13-1-.4a2.77,2.77,0,0,0-2.84-1.71c-1.89,0-2.75.55-2.75,1.82a1.68,1.68,0,0,0,1.53,1.49,15,15,0,0,0,1.59.24,10.3,10.3,0,0,1,3,.58,4,4,0,0,1,1.3.71,4.22,4.22,0,0,1,1.18,3.1c0,2.42-1.62,4.06-4.48,4.49v1.15c0,.51-.16.69-.67.69h-1.22c-.51,0-.69-.18-.69-.69V149a5,5,0,0,1-4.43-3.42c-.18-.49,0-.82.51-1l1.08-.4c.56-.2.8-.07,1.05.49a2.89,2.89,0,0,0,3,1.86c2,0,3.07-.64,3.07-2a1.37,1.37,0,0,0-1-1.38,7.73,7.73,0,0,0-2.2-.42,9.82,9.82,0,0,1-3-.64,4.28,4.28,0,0,1-1.29-.73,4.08,4.08,0,0,1-1.2-3c0-2.4,1.51-4,4.35-4.37v-1.09c0-.51.18-.69.69-.69Z" fill="#fff"></path><polygon points="180.16 193.87 156.33 222.67 206.25 205.51 206.25 193.87 180.16 193.87" fill="#ffd200"></polygon><polygon points="219.91 193.87 243.74 222.67 193.82 205.51 193.82 193.87 219.91 193.87" fill="#ffd200"></polygon><circle cx="87.91" cy="222.67" r="7" fill="#e6e6e6"></circle><circle cx="114.59" cy="65.41" r="7" fill="#e6e6e6"></circle><circle cx="361.42" cy="215.67" r="7" fill="#e6e6e6"></circle><circle cx="266.07" cy="120.31" r="4" fill="#e6e6e6"></circle><circle cx="63.03" cy="127.55" r="4" fill="#e6e6e6"></circle><circle cx="247.74" cy="34.55" r="4" fill="#e6e6e6"></circle><polygon points="299.68 54.89 299.68 74.89 312.6 74.89 315.43 82.85 318.77 74.89 331.69 74.89 331.69 54.89 299.68 54.89" fill="#e6e6e6"></polygon><path d="M314.07,69.35H314a1,1,0,0,1-.74-.38l-3.38-4.35a1,1,0,1,1,1.58-1.23l2.65,3.42,6.56-7.08a1,1,0,0,1,1.46,1.36L314.8,69A1,1,0,0,1,314.07,69.35Z" opacity="0.12"></path></svg>