<svg id="Layer_2" data-name="Layer 2" xmlns="http://www.w3.org/2000/svg" xmlns:xlink="http://www.w3.org/1999/xlink" viewBox="0 0 400 300" width="406" height="306" class="illustration styles_illustrationTablet__1DWOa"><defs><linearGradient id="linear-gradient" x1="130.11" y1="238.5" x2="138.51" y2="224.09" gradientUnits="userSpaceOnUse"><stop offset="0" stop-color="#aa4200" stop-opacity="0"></stop><stop offset="0.98" stop-color="#aa003d"></stop></linearGradient><linearGradient id="linear-gradient-2" x1="244.92" y1="163.87" x2="254.01" y2="151.17" gradientUnits="userSpaceOnUse"><stop offset="0" stop-color="#fff" stop-opacity="0"></stop><stop offset="0.98" stop-color="#aa003d"></stop></linearGradient><linearGradient id="linear-gradient-3" x1="271.19" y1="236.17" x2="304.23" y2="189.61" xlink:href="#linear-gradient"></linearGradient></defs><title>HA</title><path d="M213.64,284.19,358.5,198.57c4.61-2.59,8.57-6.84,4.07-9.63L217.19,105.16c-2.18-1.35-5.49-2.24-7.71-.95L57.42,192.46c-4.61,2.68-5.44,10.16-.82,12.84l138,78.75A19.26,19.26,0,0,0,213.64,284.19Z" fill="#f77f26"></path><path d="M146.17,250.58c10.3-5.55,46.39-28.38,56.62-34.06l-72.54-26.07L83.77,215.31C94.55,221,131.25,241.35,146.17,250.58Z" opacity="0.32" fill="url(#linear-gradient)"></path><path d="M253.05,146.2c-5,3.09-17,8.16-21.73,11,4.84,2.67,13.68,9.61,17,11.65,3.22-1.74,19.14-5.66,23.51-18.16Z" opacity="0.32" fill="url(#linear-gradient-2)"></path><path d="M99.61,201.66l102.62-58.88a7.19,7.19,0,0,1,7.21,0l54.77,32a4.23,4.23,0,0,1,0,7.31L162.65,240.89a9.48,9.48,0,0,1-9.6-.06L99.55,209A4.23,4.23,0,0,1,99.61,201.66Z" fill="#0e5648"></path><path d="M99.61,197l102.62-58.88a7.19,7.19,0,0,1,7.21,0l54.77,32a4.23,4.23,0,0,1,0,7.31L162.65,236.26a9.48,9.48,0,0,1-9.6-.06l-53.5-31.88A4.23,4.23,0,0,1,99.61,197Z" fill="#439A97"></path><path d="M199.73,145.49c.57.19,52.4,30.43,52.4,30.43l-86.58,50.72-52.31-30.2Z" fill="#fff"></path><path d="M143.21,221.84a1.34,1.34,0,0,0,.41-1.94,9.81,9.81,0,0,0-2.52-1.9c-.88-.55-1.81-1-2.71-1.56l-7-4.08L125.7,209a3,3,0,0,0-2.54-.28,3,3,0,0,0-1.48,1.13,1.22,1.22,0,0,0,.56,1.76l10.54,6.1,4.54,2.63,2.63,1.54a3.18,3.18,0,0,0,2.68.27A2.31,2.31,0,0,0,143.21,221.84Z" fill="#0e5648"></path><ellipse cx="117.16" cy="206.07" rx="1.83" ry="1.51" fill="#0e5648"></ellipse><path d="M385.06,107.28a1.5,1.5,0,0,0,0-3,1.5,1.5,0,0,0,0,3Z" fill="#439A97"></path><path d="M265.44,141.77s.12,6.14-.61,6.52-5.37,6.42-5.69,7.37c-1.07,3.15,4.75,4.54,6.84,3.47s5.59-7,5.83-8.47,2-10.68,2-10.68" fill="#663a12"></path><path d="M256.7,136.42s.12,6.14-.61,6.52-8.31,4.87-8.69,5.79c-1.21,2.93,4.69,4,6.78,3s8.65-4.9,8.9-6.4,2-10.68,2-10.68" fill="#663a12"></path><path d="M280.29,77.26s4.4,6.9,3.81,13.09-6.78,55.43-10.76,54.93-6.36.07-8.44-5.14c0,0-6.68,1.52-8.81-3.79,0,0,1.61-46.19,5.41-53.44S280.29,77.26,280.29,77.26Z" fill="#963626"></path><path d="M223.32,59.16a21.06,21.06,0,0,1,3.38-.56,18.84,18.84,0,0,0-3.45.35c-1.19.19-1.33-1.67-.14-1.87l.59-.09a1,1,0,0,1,.61-1.58,18.35,18.35,0,0,1,7.74.71,15.58,15.58,0,0,1,.05-2.84.83.83,0,0,1,.19-.44,1,1,0,0,1,1.85.25c.26,1.5.18,3,.44,4.52a5.89,5.89,0,0,0,.2.79q1.73,1.8,3.41,3.64c.79.87-.66,1.9-1.47,1.13a1.1,1.1,0,0,1-.5.41l.14.18a.84.84,0,0,1,.1.84l.13.13c.86.84-.34,2.28-1.2,1.43l-.3-.3a.75.75,0,0,1-1.1-.3,8.81,8.81,0,0,0-2.9-2.89l-.37-.25a11.85,11.85,0,0,0-3.15-.61c-.8.2-1.59.44-2.37.69a.93.93,0,0,1-.73-1.71l-.51.11C222.8,61.22,222.15,59.46,223.32,59.16Z" fill="#ffc388"></path><path d="M223.55,56.75a20.7,20.7,0,0,1,3.72-.17c.3,0,.34.49,0,.48a20.7,20.7,0,0,0-3.72.17C223.28,57.27,223.24,56.79,223.55,56.75Z" fill="#663a12"></path><path d="M223.37,58.65a25.65,25.65,0,0,1,4-.28c.3,0,.34.48,0,.48a25.64,25.64,0,0,0-4,.28C223.1,59.17,223.07,58.69,223.37,58.65Z" fill="#663a12"></path><path d="M228.65,59.27a4.87,4.87,0,0,1,4.3.82c.26.17-.05.53-.31.37a4.35,4.35,0,0,0-3.83-.73A.24.24,0,0,1,228.65,59.27Z" fill="#663a12"></path><path d="M227.89,59.16a3.33,3.33,0,0,1,1.79-2.58c.28-.12.44.33.16.45a2.85,2.85,0,0,0-1.49,2.22C228.29,59.55,227.82,59.46,227.89,59.16Z" fill="#663a12"></path><path d="M224,60.38a10.12,10.12,0,0,1,3.06-.83c.31,0,.34.44,0,.48a9.71,9.71,0,0,0-2.94.8C223.93,61,223.77,60.51,224,60.38Z" fill="#663a12"></path><path d="M244.48,56.7l-2.2,13.43s1.67,5,5.27,5.65,6.29-16.06,6.29-16.06" fill="#fcb749"></path><path d="M255.11,49.5a34.56,34.56,0,0,1,8.17,1.73c3.57,1.16,19,23.77,17,26S268.7,84,263,82.78,243.85,59.23,244.48,56.7c1.44-5.81,5.93-5.83,5.93-5.83" fill="#fcb749"></path><path d="M244.92,43.54s-1,8.52,2,10,6.43-1.66,7.42-3.51,2-11.22-3.74-10.59S244.92,43.54,244.92,43.54Z" fill="#ffc388"></path><path d="M244.75,37.92c2.35-.82,5.08-2.59,9.27.18s5.49,10.46.48,12.31l-.95-2.77a2.8,2.8,0,0,0,.58-2,1.62,1.62,0,0,0-1.94-1.51A4.25,4.25,0,0,1,251,42.69c-.85-1.68-1.8-.85-3,.64s-3.88,1.94-5.2,1S241.76,39,244.75,37.92Z" fill="#663a12"></path><path d="M235.86,58.65a101.46,101.46,0,0,1,8.86,7.09l4.33,9.32s-2.54,3.58-7.27,1.06c-3.36-1.79-8.66-8.31-11.2-12.2A9.62,9.62,0,0,1,235.86,58.65Z" fill="#fcb749"></path><path d="M267.75,91.56c.06-.64,1.06-.64,1,0l-4.55,48.52c-.06.64-1.06.64-1,0Z" fill="#663a12"></path><path d="M252.34,74.39s5-4.14,5-6-2.59-15.1,1.69-16.15,7.75,9,9,14.89S255.17,84,255.17,84" fill="#fcb749"></path><path d="M233.84,27.45c-2.9-2.09-7.28-1.77-10.18.31l8.93,100.65,10.13-.9Z" fill="#963626"></path><ellipse cx="237.65" cy="127.96" rx="5.08" ry="2.15" transform="translate(-10.38 21.5) rotate(-5.07)" fill="#963626"></ellipse><path d="M242.76,128.12s-1.15-2.46-5.18-1.92-5,2.38-5,2.38l6.16,19.09Z" fill="#ffd8bd"></path><path d="M238.77,147.67l1.85-9.08a3.65,3.65,0,0,0-4.62.51Z" fill="#653200"></path><path d="M243.59,84.69l-4.52.53s-3.65-.78-4.46.67c-.22.38,3.63.94,3.63.94s-5.54,1.46-5.2,2.55,4,3.2,4.72,3.39,7.73-5.34,7.73-5.34" fill="#ffc388"></path><path d="M241.4,84.28c1.79-2.54,5.52-5,8.56-7.9,4.13-3.42,8.44-7.75,11.76-3.08,3.7,5.19-10.84,14.94-15.07,17.62A13.49,13.49,0,0,1,241.4,84.28Z" fill="#fcb749"></path><path d="M130.91,194.85,168,216a1.13,1.13,0,0,0,1.14-1.94L132,192.91a1.13,1.13,0,0,0-1.14,1.94Z" fill="#e6e6e6"></path><path d="M146.38,185.14l37.1,21.13a1.13,1.13,0,0,0,1.14-1.94l-37.1-21.13a1.13,1.13,0,0,0-1.14,1.94Z" fill="#e6e6e6"></path><path d="M159.9,177.77,197,198.89a1.13,1.13,0,0,0,1.14-1.94L161,175.82a1.13,1.13,0,0,0-1.14,1.94Z" fill="#e6e6e6"></path><path d="M178.45,166.88,215.55,188a1.13,1.13,0,0,0,1.14-1.94l-37.1-21.13a1.13,1.13,0,0,0-1.14,1.94Z" fill="#e6e6e6"></path><path d="M197,155.25l37.1,21.13a1.13,1.13,0,0,0,1.14-1.94l-37.1-21.13a1.13,1.13,0,0,0-1.14,1.94Z" fill="#e6e6e6"></path><ellipse cx="132.69" cy="193.88" rx="7.58" ry="3.73" fill="#963626"></ellipse><path d="M134.22,195.66l.94-2.18a.67.67,0,0,0-.57-1h-6.24a.66.66,0,0,0,0,1.31h6.24l-.57-1-.94,2.18c-.33.77.8,1.44,1.13.66Z" fill="#e6e6e6"></path><ellipse cx="148" cy="184.94" rx="7.58" ry="3.73" fill="#963626"></ellipse><path d="M149.54,186.72l.94-2.18a.67.67,0,0,0-.57-1h-6.24a.66.66,0,0,0,0,1.31h6.24l-.57-1-.94,2.18c-.33.77.8,1.44,1.13.66Z" fill="#e6e6e6"></path><ellipse cx="160.47" cy="176.48" rx="7.58" ry="3.73" fill="#963626"></ellipse><path d="M162,178.26l.94-2.18a.67.67,0,0,0-.57-1h-6.24a.66.66,0,0,0,0,1.31h6.24l-.57-1-.94,2.18c-.33.77.8,1.44,1.13.66Z" fill="#e6e6e6"></path><ellipse cx="177.02" cy="166.52" rx="7.58" ry="3.73" fill="#963626"></ellipse><path d="M178.55,168.3l.94-2.18a.67.67,0,0,0-.57-1h-6.24a.66.66,0,0,0,0,1.31h6.24l-.57-1-.94,2.18c-.33.77.8,1.44,1.13.66Z" fill="#e6e6e6"></path><ellipse cx="194.5" cy="155.39" rx="7.58" ry="3.73" fill="#963626"></ellipse><path d="M196,157.17,197,155a.67.67,0,0,0-.57-1h-6.24a.66.66,0,0,0,0,1.31h6.24l-.57-1-.94,2.18c-.33.77.8,1.44,1.13.66Z" fill="#e6e6e6"></path><polyline points="307.45 189.45 254.37 214.88 263.65 243.92 331.31 196.44" opacity="0.32" fill="url(#linear-gradient-3)"></polyline><path d="M313.69,156A37,37,0,0,0,306,181.45c1,14.84,9.38,19.15,9.38,19.15l9.94.55s11.82-3.86,10.28-23.16c-1.45-18.12-7.34-22.38-7.34-22.38" fill="#439A97"></path><ellipse cx="321.02" cy="156.03" rx="7.32" ry="2.59" fill="#003b94"></ellipse><ellipse cx="321.02" cy="199.02" rx="7.32" ry="2.59" fill="#439A97"></ellipse><path d="M318,156.81,309.15,106c-.19-1.11-1.88-.64-1.69.46l8.86,50.84C316.52,158.38,318.2,157.91,318,156.81Z" fill="#007f68"></path><path d="M319.62,157a2.11,2.11,0,0,1,.82,0,1.83,1.83,0,0,1,.9.55q1.06-21.3.38-42.63c0-1.12-1.78-1.13-1.75,0Q320.65,136,319.62,157Z" fill="#007f68"></path><path d="M339.54,107.65a467.48,467.48,0,0,0-17.12,48.85.87.87,0,0,0,1.69.46,467.47,467.47,0,0,1,17.12-48.85C341.66,107.08,340,106.62,339.54,107.65Z" fill="#007f68"></path><path d="M311,126.94s-1-.12-5.14-4.52,1.1-7.71-1.32-12.66,1-11.45,1.76-16.4a23,23,0,0,0,3.67,9.69c3.15,4.51,4.91,8.59,4.58,14.31A50.66,50.66,0,0,1,312.74,128" fill="#007f68"></path><path d="M320,134.78s-.9-.35-3.89-5.63,2.94-7.21,1.79-12.6,3.74-10.86,5.69-15.48a23,23,0,0,0,1.21,10.29c2,5.14,2.68,9.52,1,15a50.66,50.66,0,0,1-4.39,9.91" fill="#007f68"></path><path d="M332.5,125.63s-.81-.52-2.65-6.31,4.35-6.45,4.34-12,5.89-9.87,8.74-14a23,23,0,0,0-.92,10.32c.87,5.44.67,9.87-2.12,14.87a50.66,50.66,0,0,1-6.33,8.8" fill="#007f68"></path><path d="M116,104.16c-.08-.4-.69-.23-.61.17.23,1.19,0,2.91-1.19,3.56a1.2,1.2,0,0,1-.27.11,1,1,0,0,0,.11-.46,2.14,2.14,0,0,0-.28-.92,4.85,4.85,0,0,1-.29-.59,6.89,6.89,0,0,1,.74-.63c.32-.25,0-.8-.32-.55l-.42.33a.32.32,0,0,0-.51,0,1,1,0,0,0-.15.61,2.35,2.35,0,0,0-.43.78c-.82.53-.62,2.11.6,2l.16,0a1.29,1.29,0,0,0,.32.09,2.23,2.23,0,0,0,2-1.2A4.64,4.64,0,0,0,116,104.16Zm-3.06,2.92h0a.24.24,0,0,0,.22-.19l.09.19a.78.78,0,0,1,0,.82A.89.89,0,0,1,112.92,107.08Z" fill="#ff413b"></path><path d="M115.35,88.38c.32-.26-.13-.7-.45-.45a2.29,2.29,0,0,0-.23,3.27c.27.31.72-.15.45-.45A1.65,1.65,0,0,1,115.35,88.38Z" fill="#ff413b"></path><path d="M129.32,95.56l-.33,0-.33-.45c-.25-.32-.8,0-.55.32l.07.09a12.56,12.56,0,0,0-2.7.28c-.4.09-.23.7.17.61a11.5,11.5,0,0,1,2.06-.24,2.07,2.07,0,0,0-.57,1.37,1.07,1.07,0,0,0,.31.7.32.32,0,0,0,.53.28,1,1,0,0,0,.26,0,1.51,1.51,0,0,0,1.27-1.15,1.79,1.79,0,0,0-.11-1.06l.18-.28A.32.32,0,0,0,129.32,95.56Zm-1.47,2a.91.91,0,0,1,.07-.58,2.78,2.78,0,0,1,.69-.86h0l.07.12Z" fill="#ff413b"></path><path d="M96.45,123.69c-.36-.19-.69.36-.32.55.78.41,2,1,1.73,2.12-.15.55-.64.82-1.11.43a2.54,2.54,0,0,1-.63-1.24.32.32,0,0,0-.61.17,2.78,2.78,0,0,0,1.12,1.76,1.23,1.23,0,0,0,1.59-.37C99.32,125.62,97.65,124.31,96.45,123.69Z" fill="#ff413b"></path><path d="M99.72,96.7c-.24-.33-.79,0-.55.32a1.94,1.94,0,1,1-3.31,1.92c-.17-.37-.72,0-.55.32a2.57,2.57,0,1,0,4.41-2.57Z" fill="#ff413b"></path><path d="M125.62,76.73c9.09,6,8.7,22.61-.87,37.09S100,135.14,91,129.13,81.25,104,90.82,89.58,116.53,70.72,125.62,76.73Z" fill="#439A97"></path><path d="M125.62,76.73c9.09,6,8.7,22.61-.87,37.09S100,135.14,91,129.13,81.25,104,90.82,89.58,116.53,70.72,125.62,76.73Z" opacity="0.42"></path><path d="M122.16,83.06c7.29,4.82,7.21,17.78-.17,28.94s-19.27,16.3-26.56,11.48-8.21-19.1-.83-30.26S114.87,78.24,122.16,83.06Z" fill="#fff"></path><path d="M117.44,85.84l-9.58,18.67,1.69-.69-8.8-3.49c-1.79-.71-2.57,2.19-.8,2.89l8.8,3.49a1.5,1.5,0,0,0,1.69-.69L120,87.35c.88-1.71-1.71-3.23-2.59-1.51Z" fill="#42210b"></path><path d="M110.93,85a1.17,1.17,0,0,0,0,2.34A1.17,1.17,0,0,0,110.93,85Z" fill="#606060"></path><path d="M107.94,120.08a1.17,1.17,0,0,0,0,2.34A1.17,1.17,0,0,0,107.94,120.08Z" fill="#606060"></path><path d="M124,100.58a1.17,1.17,0,0,0,0,2.34A1.17,1.17,0,0,0,124,100.58Z" fill="#606060"></path><path d="M94.1,104a1.17,1.17,0,0,0,0,2.34A1.17,1.17,0,0,0,94.1,104Z" fill="#606060"></path><path d="M109.16,105.27s-5.87-19.1-5.89-19.08-6.92,5.72-10.3,13Z" fill="#36b2bf" opacity="0.37"></path></svg>