<svg xmlns="http://www.w3.org/2000/svg" xmlns:xlink="http://www.w3.org/1999/xlink" viewBox="0 0 400 300" width="406" height="306" class="illustration styles_illustrationTablet__1DWOa"><defs><linearGradient id="linear-gradient" x1="203.93" y1="200.51" x2="236.12" y2="236.73" gradientUnits="userSpaceOnUse"><stop offset="0" stop-color="#7f3500"></stop><stop offset="1" stop-color="#fff"></stop></linearGradient><linearGradient id="linear-gradient-2" x1="306.83" y1="166.75" x2="333.78" y2="190.93" xlink:href="#linear-gradient"></linearGradient><linearGradient id="linear-gradient-3" x1="173.81" y1="140.24" x2="198.69" y2="168.23" xlink:href="#linear-gradient"></linearGradient><linearGradient id="linear-gradient-4" x1="-989.75" y1="115.86" x2="-1006.81" y2="134.57" gradientTransform="matrix(-1, 0, 0, 1, -753.63, 0)" gradientUnits="userSpaceOnUse"><stop offset="0" stop-color="#78b46a"></stop><stop offset="0.03" stop-color="#7f3500"></stop><stop offset="1" stop-color="#fff"></stop></linearGradient></defs><title>PP</title><g style="isolation: isolate;"><g id="Layer_2" data-name="Layer 2"><path d="M194.73,278.19,29,180.22c-5.28-3-9.8-7.83-4.66-11L190.67,73.33c2.5-1.55,6.29-2.56,8.82-1.09l174,101c5.28,3.06,6.22,11.63.94,14.69L216.58,278A22,22,0,0,1,194.73,278.19Z" fill="#ff70b0"></path><path d="M239.87,165.89l63.23,38S213,261.25,200,266.71l-68.82-39.8" fill="url(#linear-gradient)" style="mix-blend-mode: multiply;"></path><path d="M281.72,141.14,277.2,139a3.82,3.82,0,0,1-.13.76c-2,6.87-4.68,13.45-7.15,20.14,0,.09-.08.17-.11.25,20,13.57,49.44,33.49,57.36,38.48l27-15.92Z" fill="url(#linear-gradient-2)" style="mix-blend-mode: multiply;"></path><path d="M307.57,68.71c13.38,1,12.68,24.78,13.59,34.64.23,2.48-3.25,3.31-3.48.81-.75-8.21-.25-19.34-4.41-26.57-1.29-2.24-2.81-4.42-5.44-4.63a5.59,5.59,0,0,0-4.36,1.89c-1.17,1.16-1.8,5.76-2,7.13a64.08,64.08,0,0,0-.23,15.38c.24,2.48-3.24,3.31-3.48.81C297,90.39,295.66,67.81,307.57,68.71Z" fill="#8ccc00"></path><polyline points="287.56 84.66 283.54 92.03 275.5 93.87 281.53 116.7 298.63 104.55" fill="#dd842a"></polyline><polygon points="328.81 109.7 287.56 84.66 288.91 121.85 320.43 125.17 328.81 109.7" fill="#c13d3d"></polygon><polygon points="314.05 115.22 307.68 185.56 269.12 160.15 275.5 93.87 314.05 115.22" fill="#439A97"></polygon><polygon points="314.05 115.22 318.41 109.7 328.81 109.7 333.17 171.2 321.97 176.86 307.68 185.56 314.05 115.22" fill="#439A97"></polygon><polygon points="314.05 115.22 318.41 109.7 328.81 109.7 333.17 171.2 321.97 176.86 307.68 185.56 314.05 115.22" fill="#42210b" opacity="0.14"></polygon><path d="M290.35,80.47c13.41.14,14,23.9,15.45,33.69.36,2.46-3.06,3.52-3.43,1-1.2-8.15-1.31-19.29-5.85-26.24-1.86-2.85-5.13-5.24-8.34-3.38-2.88,1.67-2.92,5.41-3.2,8.53a64.05,64.05,0,0,0,.6,15.36c.37,2.46-3.05,3.51-3.43,1C281,102.81,278.41,80.35,290.35,80.47Z" fill="#8ccc00"></path><polyline points="275.3 189.73 275.3 192.92 273.69 194.91" fill="#adcee1"></polyline><path d="M211,150.78l62.45,38.71a3.87,3.87,0,0,1-.13,6.66l-94.76,53.6a8.68,8.68,0,0,1-8.67-.07l-62.17-36.54c-4.52-3.71-4.18-10.7,0-11L202,150.63A8.81,8.81,0,0,1,211,150.78Z" fill="#88d3d8"></path><path d="M211,148.11l62.45,38.71a3.87,3.87,0,0,1-.13,6.66l-94.76,53.6a8.68,8.68,0,0,1-8.67-.07l-62.17-36.54a4.82,4.82,0,0,1,0-8.33L202,148A8.81,8.81,0,0,1,211,148.11Z" fill="#fff"></path><path d="M208.47,142.82s-25.93-83.7-25.77-83.7-.81-3.72-5.45-1.62L77.73,116.09s-4.83,2-3.88,6.45,25.35,81.9,25.35,81.9a4.2,4.2,0,0,0,4.7,1.62c3-.94,102.24-58.57,102.24-58.57A3.81,3.81,0,0,0,208.47,142.82Z" fill="#053855"></path><polygon points="181.05 65.2 79.13 124.62 100.27 195.59 203.5 137.94 181.05 65.2" fill="#439A97"></polygon><path d="M214.86,157l22.83,14.22a2.75,2.75,0,0,1-.09,4.73l-82,46.72a8.06,8.06,0,0,1-8.05,0c-5.27-3.07-14.34-8.6-19.89-12a3.35,3.35,0,0,1,.06-5.75c16.58-9.64,70.65-41.09,82.49-48A4.46,4.46,0,0,1,214.86,157Z" fill="#439A97"></path><path d="M213.63,195.59,185,211.69a2.86,2.86,0,0,0,0,5l16.84,9.85a3.8,3.8,0,0,0,3.8,0l29.3-16.7a2.39,2.39,0,0,0,0-4.15l-17.51-10.06A3.8,3.8,0,0,0,213.63,195.59Z" fill="#439A97"></path><path d="M214.86,157l22.83,14.22a2.75,2.75,0,0,1-.09,4.73l-82,46.72a8.06,8.06,0,0,1-8.05,0c-5.27-3.07-14.34-8.6-19.89-12a3.35,3.35,0,0,1,.06-5.75c16.58-9.64,70.65-41.09,82.49-48A4.46,4.46,0,0,1,214.86,157Z" fill="#053855" opacity="0.1"></path><path d="M213.63,195.59,185,211.69a2.86,2.86,0,0,0,0,5l16.84,9.85a3.8,3.8,0,0,0,3.8,0l29.3-16.7a2.39,2.39,0,0,0,0-4.15l-17.51-10.06A3.8,3.8,0,0,0,213.63,195.59Z" fill="#053855" opacity="0.1"></path><path d="M127.22,144.9c3.94,10.42,1.24,21-6,23.58s-16.35-3.73-20.29-14.14-1.24-21,6-23.58S123.28,134.48,127.22,144.9Z" fill="#79c83b"></path><polygon points="104.98 153.07 106.34 149.09 111.72 154.13 117.19 138.53 121.33 140.53 113.83 161.37 104.98 153.07" fill="#fff"></polygon><path d="M190.92,111.39v-.31c0-3.4-4.23-5.51-7.61-3.8l-47.59,26.5a15.53,15.53,0,0,0-2.29,1.36h0c-3.35,2.78.22,9.6,6.61,6.62l48.35-26.55A4.33,4.33,0,0,0,190.92,111.39Z" fill="#031e28"></path><path d="M130.7,117.08a1.38,1.38,0,0,1,2.23.82l-.77.71a.85.85,0,0,0-1.33-.44,2.12,2.12,0,0,0-.91,1.1,3.58,3.58,0,0,0-.19,1.82,2,2,0,0,0,.58,1.39.9.9,0,0,0,1.05,0,2.24,2.24,0,0,0,1.05-1.77l.83-.17a3.56,3.56,0,0,1-1.75,3,1.59,1.59,0,0,1-1.72,0,2.64,2.64,0,0,1-1-2,5,5,0,0,1,.37-2.75A3.63,3.63,0,0,1,130.7,117.08Z" fill="#fff"></path><path d="M135.45,114.51l2.41,5.44-1,.53-.54-1.3-1.52.85-.17,1.69-1,.54.85-7.25Zm-.5,4.29,1-.57-.78-1.92-.24,2.48" fill="#fff"></path><path d="M143.46,110.07c1.14-.63,2.36-.28,2.63,1.93a4.3,4.3,0,0,1-1.85,4.42l-1.5.84L142,110.9Zm1.4,4.4a3,3,0,0,0,.32-2c-.1-.8-.37-1.27-.73-1.38a1.39,1.39,0,0,0-1.14.2l-.33.18.51,4.17.33-.18a2.7,2.7,0,0,0,1-1" fill="#fff"></path><path d="M140.42,115.5l1.69,2.09-1,.56-1.62-2-.47.26.34,2.73-.9.5-.78-6.34,1.76-1c.93-.52,1.55-.09,1.68,1A2.64,2.64,0,0,1,140.42,115.5Zm-.67-.68a1,1,0,0,0,.48-1c-.06-.48-.28-.61-.65-.4l-.87.48.18,1.43.87-.48" fill="#fff"></path><polygon points="163.69 98.82 164.47 105.17 163.58 105.66 163.1 101.75 162.59 105.59 161.95 105.95 160.62 103.13 161.1 107.04 160.2 107.54 159.42 101.2 160.43 100.64 162.04 103.97 162.69 99.38 163.69 98.82" fill="#fff"></polygon><polygon points="158.94 101.46 158 105.87 158.33 108.58 157.44 109.07 157.11 106.37 155.27 103.5 156.24 102.97 157.41 104.95 157.98 102 158.94 101.46" fill="#fff"></polygon><path d="M154,104.19l2.41,5.44-1,.54-.53-1.3-1.53.85-.17,1.69-1,.53.85-7.25Zm-.49,4.29,1-.56-.77-1.92-.24,2.48" fill="#fff"></path><path d="M150.16,106.34c1-.55,1.6-.06,1.74,1.1a2.65,2.65,0,0,1-1.27,2.76l-.92.51.31,2.48-.89.49-.78-6.34Zm.31,2.79a1.09,1.09,0,0,0,.53-1.19c-.07-.57-.32-.72-.74-.49l-.89.49.21,1.68.89-.49" fill="#fff"></path><polygon points="167.65 96.62 167.79 97.72 165.71 98.87 165.87 100.2 167.54 99.27 167.67 100.36 166 101.29 166.22 103.04 168.37 101.84 168.5 102.93 165.46 104.62 164.68 98.28 167.65 96.62" fill="#fff"></polygon><polygon points="176.46 91.73 176.59 92.82 175.26 93.56 175.91 98.81 175.01 99.31 174.37 94.06 173.03 94.8 172.9 93.71 176.46 91.73" fill="#fff"></polygon><polygon points="172.14 94.13 172.92 100.47 171.97 101 169.69 97.8 170.21 101.98 169.32 102.47 168.54 96.13 169.48 95.61 171.76 98.82 171.24 94.63 172.14 94.13" fill="#fff"></polygon><path d="M159.59,127.91l69.89,33.47s-19.78,18.72-32.77,24.18L138.53,142" fill="url(#linear-gradient-3)" style="mix-blend-mode: multiply;"></path><polygon points="234.67 144.62 234.67 146.85 234 145.74 234.67 144.62" fill="#756373"></polygon><polygon points="141.42 132.06 141.42 134.19 143.15 133.04 141.42 132.06" fill="#756373"></polygon><path d="M142.81,136.51l53.61,30.71a6.06,6.06,0,0,0,6.08,0l30.8-18.05a2.77,2.77,0,0,0,0-4.79l-53.86-31.07a5.28,5.28,0,0,0-5.31,0l-31.33,18.42A2.77,2.77,0,0,0,142.81,136.51Z" fill="#513f2c"></path><path d="M142.81,134.37l53.61,30.71a6.06,6.06,0,0,0,6.08,0L233.31,147a2.77,2.77,0,0,0,0-4.79l-53.86-31.07a5.28,5.28,0,0,0-5.31,0l-31.33,18.42A2.77,2.77,0,0,0,142.81,134.37Z" fill="#a2c609"></path><path d="M149,131.75l9.41,5.51a1.44,1.44,0,0,0,1.49,0l5.25-3.33a.82.82,0,0,0,0-1.4l-9.86-5.67a1.25,1.25,0,0,0-1.34.06l-5,3.49A.82.82,0,0,0,149,131.75Z" fill="#fff"></path><ellipse cx="194.5" cy="152.51" rx="4.97" ry="3.49" fill="#ff4700"></ellipse><ellipse cx="199.85" cy="155.54" rx="4.97" ry="3.49" fill="#ffdf24"></ellipse><polygon points="159.77 119.6 220.15 154.72 229.47 149.25 168.33 114.57 159.77 119.6" fill="#513f2c"></polygon><path d="M247.66,114.2l17,10.08s-5.27,9.24-18.26,14.7L226.6,128.33" fill="url(#linear-gradient-4)" style="mix-blend-mode: multiply;"></path><ellipse cx="233.83" cy="119.43" rx="15.78" ry="11.11" fill="#439A97"></ellipse><ellipse cx="233.82" cy="112.87" rx="11.82" ry="4.84" fill="#974c26"></ellipse><path d="M233.38,104.8c0-2.18-.07-4.37-.25-6.54q-.07-.85-.15-1.69l-.13-1.11c-.05-.33-.18-1.17-.17-1.13q-.11-.66-.23-1.33A52.09,52.09,0,0,0,224,72.36a30.17,30.17,0,0,0-2.35,12.08c0,1.2.09,2.39.2,3.59,0,.32,0,.46,0,.51s0-.07.05.2c.1.59.2,1.17.32,1.76A47.68,47.68,0,0,0,224.15,97a39.81,39.81,0,0,0,2.55,5.71c1.07,2.06,2.24,4.07,3.49,6,1,1.53,1.91,2.9,2.84,4.21C233.25,110.26,233.38,107.53,233.38,104.8Zm-6.21-24.53a2,2,0,0,0-.06-.85h0q.46.46.89.95A2.71,2.71,0,0,0,227.18,80.27Z" fill="#999a1c"></path><path d="M237.45,106.49c1.18-1.84,2.3-3.71,3.33-5.64q.4-.75.79-1.51l.5-1,.47-1q.27-.62.52-1.24a52.09,52.09,0,0,0,4.05-21.91A30.17,30.17,0,0,0,238.6,83c-.64,1-1.21,2.06-1.77,3.12l-.24.45s0-.06-.07.2c-.23.55-.46,1.1-.68,1.65a47.68,47.68,0,0,0-2,6.52,39.81,39.81,0,0,0-.94,6.18c-.21,2.31-.31,4.64-.32,7,0,1.82,0,3.47.11,5.07C234.39,111,236,108.78,237.45,106.49Zm8-24a2,2,0,0,0,.41-.74h0q.13.64.23,1.28A2.71,2.71,0,0,0,245.49,82.5Z" fill="#999a1c"></path><path d="M237.37,111.93q1.85-.91,3.62-2l.91-.56.59-.38.59-.41.68-.5A32.76,32.76,0,0,0,253,97.58a19,19,0,0,0-7.46,2.06c-.67.34-1.32.72-2,1.11l-.27.17s0,0-.1.09l-.9.67a30,30,0,0,0-3.17,2.88,25,25,0,0,0-2.5,3c-.86,1.18-1.67,2.4-2.42,3.65-.59,1-1.1,1.89-1.58,2.77C234.25,113.38,235.83,112.69,237.37,111.93Zm12.08-10.35a1.23,1.23,0,0,0,.46-.27h0q-.13.39-.29.76A1.7,1.7,0,0,0,249.45,101.57Z" fill="#999a1c"></path><path d="M233.38,104.8c0-2.18-.07-4.37-.25-6.54q-.07-.85-.15-1.69l-.13-1.11c-.05-.33-.18-1.17-.17-1.13q-.11-.66-.23-1.33A52.09,52.09,0,0,0,224,72.36a30.17,30.17,0,0,0-2.35,12.08c0,1.2.09,2.39.2,3.59,0,.32,0,.46,0,.51s0-.07.05.2c.1.59.2,1.17.32,1.76A47.68,47.68,0,0,0,224.15,97a39.81,39.81,0,0,0,2.55,5.71c1.07,2.06,2.24,4.07,3.49,6,1,1.53,1.91,2.9,2.84,4.21C233.25,110.26,233.38,107.53,233.38,104.8Zm-6.21-24.53a2,2,0,0,0-.06-.85h0q.46.46.89.95A2.71,2.71,0,0,0,227.18,80.27Z" fill="#999a1c"></path><path d="M237.45,106.49c1.18-1.84,2.3-3.71,3.33-5.64q.4-.75.79-1.51l.5-1,.47-1q.27-.62.52-1.24a52.09,52.09,0,0,0,4.05-21.91A30.17,30.17,0,0,0,238.6,83c-.64,1-1.21,2.06-1.77,3.12l-.24.45s0-.06-.07.2c-.23.55-.46,1.1-.68,1.65a47.68,47.68,0,0,0-2,6.52,39.81,39.81,0,0,0-.94,6.18c-.21,2.31-.31,4.64-.32,7,0,1.82,0,3.47.11,5.07C234.39,111,236,108.78,237.45,106.49Zm8-24a2,2,0,0,0,.41-.74h0q.13.64.23,1.28A2.71,2.71,0,0,0,245.49,82.5Z" fill="#999a1c"></path><path d="M237.37,111.93q1.85-.91,3.62-2l.91-.56.59-.38.59-.41.68-.5A32.76,32.76,0,0,0,253,97.58a19,19,0,0,0-7.46,2.06c-.67.34-1.32.72-2,1.11l-.27.17s0,0-.1.09l-.9.67a30,30,0,0,0-3.17,2.88,25,25,0,0,0-2.5,3c-.86,1.18-1.67,2.4-2.42,3.65-.59,1-1.1,1.89-1.58,2.77C234.25,113.38,235.83,112.69,237.37,111.93Zm12.08-10.35a1.23,1.23,0,0,0,.46-.27h0q-.13.39-.29.76A1.7,1.7,0,0,0,249.45,101.57Z" fill="#999a1c"></path></g></g></svg>