<svg xmlns="http://www.w3.org/2000/svg" xmlns:xlink="http://www.w3.org/1999/xlink" viewBox="0 0 400 300" width="406" height="306" class="illustration styles_illustrationTablet__1DWOa"><defs><linearGradient id="linear-gradient" x1="341" y1="179.18" x2="309.24" y2="207.4" gradientUnits="userSpaceOnUse"><stop offset="0" stop-color="gray"></stop><stop offset="1" stop-color="#fff"></stop></linearGradient><linearGradient id="linear-gradient-2" x1="101.11" y1="147.15" x2="76.53" y2="169" xlink:href="#linear-gradient"></linearGradient><linearGradient id="linear-gradient-3" x1="70.35" y1="159.61" x2="39.91" y2="186.67" xlink:href="#linear-gradient"></linearGradient><linearGradient id="linear-gradient-4" x1="181.69" y1="178.96" x2="128.36" y2="218.74" xlink:href="#linear-gradient"></linearGradient></defs><title>PP</title><g style="isolation: isolate;"><g id="Layer_2" data-name="Layer 2"><path d="M388.11,173.86,199.45,64.37c-2.75-1.6-6.86-.5-9.57,1.18L9.51,169.5c-5.58,3.46-.67,8.73,5.05,11.94L194.28,287.67A23.9,23.9,0,0,0,218,287.5l171.16-97.71C394.85,186.47,393.83,177.19,388.11,173.86Z" fill="#ffc49e"></path><path d="M311.55,217.44c5-2.68,36.1-17.32,36.1-17.32-.69-2.06-14.58-14.44-16.62-15.81l-44,16Z" fill="url(#linear-gradient)" style="mix-blend-mode: multiply;"></path><path d="M79.66,177.59c5-2.68,27.1-13.5,27.1-13.5-.69-2.06-13.23-13.84-15.27-15.21l-32.77,14Z" fill="url(#linear-gradient-2)" style="mix-blend-mode: multiply;"></path><path d="M43.91,199.55c5-2.68,26.51-25.43,26.51-25.43-.69-2.06-1.36-3.92-3.4-5.29l-44,16Z" fill="url(#linear-gradient-3)" style="mix-blend-mode: multiply;"></path><polygon points="59.87 208.34 255.74 97.06 351.62 152.7 156.04 265.18 59.87 208.34" fill="#5a5f6b"></polygon><polygon points="53.54 204.71 249.41 93.42 345.28 149.07 149.71 261.55 53.54 204.71" fill="#8b8f9a"></polygon><polygon points="259.16 171.22 142.82 239.88 82.44 202.94 132.69 174.15 237.55 154.93 259.16 171.22" fill="url(#linear-gradient-4)" style="mix-blend-mode: multiply;"></polygon><path d="M132.69,174.15l5.46-9.2c6-4.67,20.75-15.67,20.75-15.67,4.27-5.37,16-17.11,16-17.11,8.36-6.15,39.59-22.8,41.94-23.06s10.53,1.54,11.79,1.67,5.08-2.49,5.08-2.49c11.34.94,22.43,10.23,27.72,14.26a14.26,14.26,0,0,1,5.38,10.33s.57,19.43.24,20.45-3.47,3.24-3.47,3.24.1-10.95-7.82-7.07-9.62,17.38-10.36,18.09-39.46,23.09-48,28.06c.08-2.42-.23-4.93-2.06-6.68-2.13-2-5.27-1.76-7.8-.74a13.65,13.65,0,0,0-6.33,5,20.93,20.93,0,0,0-3.92,10c-.07.44-.3,6.49-.4,6.52-20.89,6.84-44-18.23-44.5-20.2S132.69,174.15,132.69,174.15Z" fill="#439A97"></path><path d="M149.14,192.2c7.81,5,15.84,7.13,29.45,5.32-.24,1-1.14,4.79-1.29,5.75-.07.44-.3,6.49-.4,6.52-20.89,6.84-44-18.23-44.5-20.2-.42-1.81.18-13.41.28-15.2C136.41,182.16,137.35,184.73,149.14,192.2Z" fill="#2e2e75" opacity="0.33"></path><path d="M159.84,195.37a4,4,0,0,1-1.6-.92c-.85-.9-.25-2.06.39-2.88a4.27,4.27,0,0,1,2.5-1.52,55.48,55.48,0,0,1,6-1.2c1.34-.2,2.69-.36,4-.46a15.77,15.77,0,0,1,4.39.05c1.52.32,1.16,2.29.63,3.31a10.3,10.3,0,0,1-4.1,3.82,9.3,9.3,0,0,1-3.84,1.18,17.85,17.85,0,0,1-4.29-.33,23.68,23.68,0,0,1-3.09-.73C160.54,195.59,160.19,195.49,159.84,195.37Z" fill="#d4f5ff"></path><path d="M132.69,174.15s2.53,5,4,6.22,2.2.41,2.39-.86-.75-14.56-1-14.56S134.26,166.76,132.69,174.15Z" fill="#d4f5ff"></path><path d="M142.07,178.33c.45.21.94.63,1.3.85q3.78,2.29,7.54,4.64l3.76,2.34c.82.51,2.65,1.13,1.84,2.35a15.93,15.93,0,0,1-3.13,3.3,1.89,1.89,0,0,1-2.51.33c-1.83-1.07-3.68-2.13-5.5-3.22-1.41-.85-3-1.88-3.46-3.58a31.65,31.65,0,0,1-.95-5.4c0-.61-.15-1.88.77-1.71A1.39,1.39,0,0,1,142.07,178.33Z" fill="#d4f5ff"></path><path d="M140.29,187.64s-.12,3.14-.06,3.2a43.79,43.79,0,0,0,12.1,7.36l.06-3.06A73.87,73.87,0,0,1,140.29,187.64Z" fill="#d4f5ff"></path><path d="M164.69,204.62a1.55,1.55,0,0,1,1.11,1.45c0,1.55-1.41,1.48-2.5,1.52-1.36.05-13.57-4.09-21.51-10.3s-9.31-11.51-9.31-11.51l.08-4.07s1.95,8.46,12.37,14.66a76.44,76.44,0,0,0,13.53,6.33c1.46.52,2.94,1,4.43,1.41A14.52,14.52,0,0,1,164.69,204.62Z" fill="#d4f5ff"></path><path d="M177.71,133c-1.62-1.55-16.11,14.55-17,16.72s-2.25,3.56.74,6.9,20,13.26,23.33,14.09,5.19,2.61,9.75-1.56S206,151.3,206,151.3,186,140.87,177.71,133Z" fill="#d4f5ff"></path><path d="M161.65,146.39s-3.21-2.71-5.37-1.73,2.61,4.63,2.61,4.63Z" fill="#1f1971"></path><path d="M247.06,127.92l8.66.53s1.25.47.51-1.62-9.11-10.63-20.26-13.21c0,0-15.44-2.67-12.58-1.57C225,112.68,237.6,118.62,247.06,127.92Z" fill="#d4f5ff"></path><ellipse cx="255.58" cy="161.41" rx="13.37" ry="8.94" transform="translate(-0.98 321.25) rotate(-64.2)" fill="#2e2e75"></ellipse><ellipse cx="256.46" cy="161.47" rx="7.27" ry="4.86" transform="translate(-0.54 322.08) rotate(-64.2)" fill="#ddd"></ellipse><path d="M246.58,142.13c2.83-2,5.66-4,8.44-6.05a14.4,14.4,0,0,0-5.07-1.66,26.06,26.06,0,0,0-3.23,0Z" fill="#d4f5ff"></path><path d="M227.53,140a52.86,52.86,0,0,0-16.29,12.24,61.36,61.36,0,0,0-10.85,18.21,1.26,1.26,0,0,0,1.85,1.54c4.84-3,14.42-9,21.33-13.46l1.73-1.11v-.12l1.93-1.38Z" fill="#d4f5ff"></path><path d="M244,134.66a44.86,44.86,0,0,0-7.45,1.71c-1.75.55-3.49,1.2-5.21,1.92l-.28,14.89,12.14-8.68.62-.44Z" fill="#d4f5ff"></path><path d="M226.51,115.16s10.12,5.37,14,10.32a1.58,1.58,0,0,1-2.41,1.08s-12.73-10.32-16.94-11.81" fill="#0b096e"></path><path d="M196.06,124.37c-2.17-1-4.37-2-6.25-2.88a1,1,0,0,1-.13.17,17.17,17.17,0,0,0-5.44,9.28,52.21,52.21,0,0,0,6.58,4.41A23.71,23.71,0,0,1,196,124.45Z" fill="#6ca9e0"></path><path d="M187.77,120.59l-2.95-1.29s-2.19.36-4.47,5.52c-.54,1.23.38,2.84,2.11,4.55A19,19,0,0,1,187.77,120.59Z" fill="#6ca9e0"></path><path d="M205.82,130c-.3-.83-3.95-2.81-8.13-4.84a1.08,1.08,0,0,1-.25.8,21.68,21.68,0,0,0-4.69,10.46c4.54,2.43,8.83,4.11,10,3.8C210.1,138.2,206.54,132,205.82,130Z" fill="#6ca9e0"></path><path d="M189.68,121.67a1,1,0,0,0,.13-.17l-2-.91a19,19,0,0,0-5.3,8.78c.52.52,1.13,1,1.78,1.58A17.17,17.17,0,0,1,189.68,121.67Z" fill="#307eb7"></path><path d="M197.7,125.16l-1.64-.79-.08.07a23.71,23.71,0,0,0-5.16,10.91c.64.37,1.29.73,1.93,1.07A21.68,21.68,0,0,1,197.44,126,1.08,1.08,0,0,0,197.7,125.16Z" fill="#307eb7"></path><polygon points="211.5 143.19 200.93 137.4 201.18 124.13 212.62 130.46 211.5 143.19" fill="#ffc655"></polygon><path d="M184.62,110.52l-.16,8.69a.67.67,0,0,0,.33.59l16.3,9.62c.43.26,0-.83,0-1.33l0-8.82a.67.67,0,0,0-.33-.62l-15.13-8.69A.67.67,0,0,0,184.62,110.52Z" fill="#efdec2"></path><path d="M184.65,114.29s-.24,1.12,0,1.13,16.53,9.8,16.53,9.8l0-1.08Z" fill="#bbac97"></path><polygon points="195.43 119.5 195.38 122.24 197.17 123.34 197.23 120.54 195.43 119.5" fill="#f9c74c"></polygon><path d="M201.18,124.13c1,.44,10.55,6.31,10.55,6.31L230.88,120s-7.29-5-7.93-4.74S201.18,124.13,201.18,124.13Z" fill="#ffdd93"></path><path d="M185.22,109.86S204.72,98.48,205,98.59,220.53,108,220.53,108l-19.44,11.29Z" fill="#f2e7d3"></path><polygon points="188.37 115.19 188.32 117.93 190.12 119.03 190.17 116.23 188.37 115.19" fill="#f9c74c"></polygon><polygon points="230.88 119.98 230.64 132.88 211.5 143.19 211.73 130.44 230.88 119.98" fill="#eead3a"></polygon><path d="M201,118.51s-2.59,1.44-.31,4.89,4.08,3.67,6.85,2.9a4.91,4.91,0,0,0,1.06-3C208.66,121.29,206.56,116,201,118.51Z" fill="#f77750"></path><path d="M222,107.35a2.34,2.34,0,0,0-1.37.49c-3.42,2.14-7.1,3.83-10.68,5.69-1,.54-2.08,1.08-3.07,1.71L201,118.51l-.23.13s2.72-1,4.69.51,3.91,4.76,2.07,7.15c0,0,19-10.39,19-10.69a2.43,2.43,0,0,1,.19-.59,9.47,9.47,0,0,0,.32-1.31,5.41,5.41,0,0,0-.48-3.54,4.88,4.88,0,0,0-2.22-2,10.48,10.48,0,0,0-1.4-.54c-.3-.09-.58-.23-.89-.3Z" fill="#ea5523"></path><path d="M206.68,123.13a2.75,2.75,0,0,0-1.93-2.59c-1-.25-2.06.1-2.16,1.15a2.42,2.42,0,0,0,1.86,2.27c1.19.13,1-1.18.61-1.81-.24-.4-.89-.05-.65.35q0,1-.59.26-1-.79.72-1.54c.62,0,1.1.77,1.27,1.26.55,1.6-.56,2.91-2.33,1.84a3.19,3.19,0,0,1-1.66-2.77c.13-1.5,1.61-1.93,3-1.65.47.1.68-.58.21-.68a3.25,3.25,0,0,0-3.37.87,3,3,0,0,0,.05,3.49,3.82,3.82,0,0,0,3.13,1.85A1.89,1.89,0,0,0,206.68,123.13Z" fill="#c63f1a"></path><path d="M202.87,144.18a145,145,0,0,1-19.44-11.86c-1.43-1-2.85,1.31-1.43,2.34a145,145,0,0,0,19.44,11.86C203,147.31,204.45,145,202.87,144.18Z" fill="#0b096e"></path><path d="M186,134.11c-.35-.24,5.72-19.91,6.19-20.33,1.07-.95,18.94-11.51,18.94-11.51l1.14.69S193,114.5,193,114.5s-6.35,19.42-6.31,20.14" fill="#54547a"></path><path d="M191.87,138.19c-.35-.24,5.85-20.34,6.33-20.77,1.07-.95,18.94-11.51,18.94-11.51l1.14.69s-19.2,11.54-19.2,11.54-6.42,19.9-6.37,20.63" fill="#54547a"></path><ellipse cx="187.49" cy="199.88" rx="13.83" ry="9.02" transform="translate(-74.08 281.67) rotate(-64.2)" fill="#0b096e"></ellipse><ellipse cx="188.3" cy="199.89" rx="7.52" ry="4.91" transform="translate(-73.63 282.41) rotate(-64.2)" fill="#ddd"></ellipse><path d="M85.2,68.76s-18.35,51.12-15,106.45c0,0-8.32,5-11.63-2C58.62,173.18,68.08,68,85.2,68.76Z" fill="#d8876a"></path><polyline points="82.44 72.88 96.58 52.83 86.37 72.3" fill="#6a9546"></polyline><path d="M87.81,54.1c5.73,8.93-5.55,23.42-8.74,27.2-.5.6-.8.93-.8.93" fill="#6a9546"></path><path d="M76.42,52.73l6.71,16.93L87,61.53s4.34-6.08-2-10.29S76.42,52.73,76.42,52.73Z" fill="#6a9546"></path><path d="M108.53,64.87c10.28,4.83,11,19.4,11,19.4l-39.3-4.68,2.89-8.82" fill="#85b23b"></path><path d="M86.46,70.32S98.25,60,108.53,64.87" fill="#85b23b"></path><path d="M116.77,95.86Q115,95,113.2,94.09l.06-5.6-1.48,4.93c-3.27-1.57-6.56-3.08-9.85-4.58L99,87.5A14.47,14.47,0,0,0,99.63,83c0-.26-1.05,1.92-2,4a106.43,106.43,0,0,0-18-6.28l1.45-1.4s7.44-9.08,26.69-4S129,102.8,129,102.8l-.36-.14A78.33,78.33,0,0,0,116.77,95.86Z" fill="#6a9546"></path><path d="M87.81,54.1c-6.64-10.34-15.39-1-15.39-1" fill="#6a9546"></path><path d="M80.24,79.58s6.76-7.18-.35-21.64S56,44.25,56,44.25l4.62,10.56,7.08.7L62.21,58l4.4,8.11s5.91-.62,7.77-.68c.42,0-5.79,3.76-5.79,3.76l9.69,13Z" fill="#85b23b"></path><path d="M71.15,77.74l1.56-4-3.24,3.56c-3.8-.89-7.65-1.61-11.53-2.27l.8-3.78-2.2,3.54c-2.09-.36-4.18-.72-6.26-1l1.46-4.45-3,4.26a39.57,39.57,0,0,0-7.7-.19c3.92-9.08,18.3-14.82,28.7-11C80.26,66.3,80.24,79.58,80.24,79.58L77,79.41C75.09,78.78,73.13,78.24,71.15,77.74Z" fill="#6a9546"></path><path d="M96.55,94.35l1.59-1.76L96.27,94a82.81,82.81,0,0,0-6.21-6.11l1.46-2.48-2.11,1.91a105,105,0,0,0-9.79-7.54c1.27-.74,6.34-3.19,14.48-.62C103,82,105,95,102.15,100.81l-.91-.67A70.62,70.62,0,0,0,96.55,94.35Z" fill="#85b23b"></path><path d="M326,80.51s18.35,51.12,15,106.45c0,0,8.32,5,11.63-2C352.56,184.93,343.1,79.78,326,80.51Z" fill="#d8876a"></path><polyline points="328.74 84.63 314.6 64.57 324.81 84.04" fill="#6a9546"></polyline><path d="M323.37,65.85c-5.73,8.93,5.55,23.42,8.74,27.2.5.6.8.93.8.93" fill="#6a9546"></path><path d="M334.76,64.48l-6.71,16.93-3.88-8.13s-4.34-6.08,2-10.29S334.76,64.48,334.76,64.48Z" fill="#6a9546"></path><path d="M302.65,76.62c-10.28,4.83-11,19.4-11,19.4l39.3-4.68L328,82.51" fill="#85b23b"></path><path d="M324.73,82.06s-11.8-10.27-22.07-5.45" fill="#85b23b"></path><path d="M294.41,107.61q1.78-.9,3.57-1.77l-.06-5.6,1.48,4.93c3.27-1.57,6.56-3.08,9.85-4.58l3-1.34a14.47,14.47,0,0,1-.68-4.53c0-.26,1.05,1.92,2,4a106.43,106.43,0,0,1,18-6.28L330.11,91s-7.44-9.08-26.69-4-21.22,27.58-21.22,27.58l.36-.14A78.33,78.33,0,0,1,294.41,107.61Z" fill="#6a9546"></path><path d="M323.37,65.85c6.64-10.34,15.39-1,15.39-1" fill="#6a9546"></path><path d="M330.94,91.33s-6.76-7.18.35-21.64S355.22,56,355.22,56L350.6,66.56l-7.08.7L349,69.79l-4.4,8.11s-5.91-.62-7.77-.68c-.42,0,5.79,3.76,5.79,3.76l-9.69,13Z" fill="#85b23b"></path><path d="M340,89.49l-1.56-4,3.24,3.56c3.8-.89,7.65-1.61,11.53-2.27l-.8-3.78,2.2,3.54c2.09-.36,4.18-.72,6.26-1l-1.46-4.45,3,4.26a39.57,39.57,0,0,1,7.7-.19c-3.92-9.08-18.3-14.82-28.7-11-10.55,3.86-10.54,17.14-10.54,17.14l3.19-.17C336.09,90.53,338.06,90,340,89.49Z" fill="#6a9546"></path><path d="M314.63,106.1,313,104.34l1.87,1.45a82.81,82.81,0,0,1,6.21-6.11l-1.46-2.48,2.11,1.91a105,105,0,0,1,9.79-7.54c-1.27-.74-6.34-3.19-14.48-.62-8.93,2.81-10.86,15.83-8,21.61l.91-.67A70.62,70.62,0,0,1,314.63,106.1Z" fill="#85b23b"></path><path d="M89.5,161.46c5.14.06,9.87-.93,13.9-3.58q.07-.71.07-1.43a13.74,13.74,0,1,0-27.47,0,14.47,14.47,0,0,0,.18,2.14C80.12,160.86,85.19,161.41,89.5,161.46Z" fill="#a55942"></path><path d="M96.53,159s-8.18-15.38-10.48-23.86c0,0,8.56,4.52,13,23.07" fill="#6a9546"></path><path d="M95.59,157.62s.34-17.42,2.47-25.94c0,0,5.27,8.12.09,26.46" fill="#7faa55"></path><path d="M93.54,158.2S102.12,143,108,136.55c0,0,.78,9.65-12.5,23.33" fill="#8bbc5c"></path><path d="M95.85,166.9a19,19,0,0,0,10.91-2.81q.05-.55.06-1.12a10.78,10.78,0,1,0-21.56,0,11.35,11.35,0,0,0,.14,1.68C88.49,166.43,92.47,166.86,95.85,166.9Z" fill="#7f3726"></path><path d="M330.39,197.5c5.14.06,9.87-.93,13.9-3.58q.07-.71.07-1.43a13.74,13.74,0,1,0-27.47,0,14.47,14.47,0,0,0,.18,2.14C321,196.9,326.08,197.45,330.39,197.5Z" fill="#a55942"></path><path d="M337.42,195.09s-8.18-15.38-10.48-23.86c0,0,8.56,4.52,13,23.07" fill="#6a9546"></path><path d="M336.48,193.66s.34-17.42,2.47-25.94c0,0,5.27,8.12.09,26.46" fill="#7faa55"></path><path d="M334.43,194.25s8.58-15.16,14.5-21.66c0,0,.78,9.65-12.5,23.33" fill="#8bbc5c"></path><path d="M336.74,202.94a19,19,0,0,0,10.91-2.81q.05-.55.06-1.12a10.78,10.78,0,1,0-21.56,0,11.35,11.35,0,0,0,.14,1.68C329.37,202.47,333.36,202.9,336.74,202.94Z" fill="#7f3726"></path><path d="M311.55,217.44a1.5,1.5,0,0,0,0,3A1.5,1.5,0,0,0,311.55,217.44Z" fill="#a55942"></path><path d="M295.72,199.68a1.5,1.5,0,0,0,0,3A1.5,1.5,0,0,0,295.72,199.68Z" fill="#a55942"></path><path d="M248.24,244.58a1.5,1.5,0,0,0,0,3A1.5,1.5,0,0,0,248.24,244.58Z" fill="#a55942"></path><path d="M201.41,257.5a1.5,1.5,0,0,0,0,3A1.5,1.5,0,0,0,201.41,257.5Z" fill="#a55942"></path><path d="M204,81.79a1.5,1.5,0,0,0,0,3A1.5,1.5,0,0,0,204,81.79Z" fill="#a55942"></path><path d="M156.84,100.84a1.5,1.5,0,0,0,0,3A1.5,1.5,0,0,0,156.84,100.84Z" fill="#a55942"></path><path d="M135.84,134.43a1.5,1.5,0,0,0,0,3A1.5,1.5,0,0,0,135.84,134.43Z" fill="#a55942"></path><path d="M43.79,168.35a1.5,1.5,0,0,0,0,3A1.5,1.5,0,0,0,43.79,168.35Z" fill="#a55942"></path></g></g></svg>